<svg width="24" height="15" viewBox="0 0 24 15" fill="none" xmlns="http://www.w3.org/2000/svg">
<path d="M9.58336 7.05091C10.8421 6.44529 11.4992 5.52888 11.4992 4.10248C11.4992 1.28951 9.41711 0.604195 7.0144 0.604195L0.400024 0.604195L0.400024 14.7248H7.20044C9.74961 14.7248 12.1444 13.4936 12.1444 10.6249C12.1444 8.85185 11.3092 7.54099 9.58336 7.05091ZM3.48357 3.01474H6.37711C7.4894 3.01474 8.49086 3.32951 8.49086 4.62841C8.49086 5.82771 7.71107 6.30982 6.61065 6.30982H3.48357V3.01474ZM6.78086 12.3262H3.48357L3.48357 8.43748H6.84419C8.2019 8.43748 9.06086 9.00724 9.06086 10.4536C9.06086 11.88 8.03565 12.3262 6.78086 12.3262ZM20.9715 2.73583H15.2834V1.34529H20.9715V2.73583ZM23.2 9.76029C23.2 6.73615 21.4425 4.21404 18.2561 4.21404C15.1606 4.21404 13.0588 6.55685 13.0588 9.62482C13.0588 12.8083 15.0498 14.9918 18.2561 14.9918C20.6825 14.9918 22.254 13.8921 23.01 11.5533H20.5479C20.2827 12.4258 19.1902 12.888 18.3431 12.888C16.7084 12.888 15.8494 11.9238 15.8494 10.2862H23.1763C23.1882 10.1189 23.2 9.93959 23.2 9.76029ZM15.8534 8.51716C15.9444 7.17443 16.8311 6.33373 18.169 6.33373C19.5702 6.33373 20.2748 7.16248 20.3936 8.51716H15.8534Z" fill="#0057FF"/>
</svg>
