<svg width="35" height="35" viewBox="0 0 35 35" fill="none" xmlns="http://www.w3.org/2000/svg">
<path d="M15.35 4.59996C13.7096 4.59996 12.1788 5.05791 10.8737 5.85556C10.7389 5.13405 10.493 4.43779 10.1449 3.79156C11.7817 2.88577 13.6265 2.42278 15.497 2.44836C17.3676 2.47394 19.199 2.9872 20.8104 3.9374C22.4218 4.88761 23.7574 6.24188 24.6851 7.86635C25.6128 9.49082 26.1005 11.3293 26.1 13.2H31.4772C32.3321 13.2005 33.1519 13.5406 33.7562 14.1453C34.3606 14.75 34.7001 15.57 34.7001 16.425V29.325C34.7001 30.1803 34.3603 31.0006 33.7555 31.6054C33.1507 32.2102 32.3304 32.55 31.475 32.55H18.5751C17.7197 32.55 16.8994 32.2102 16.2946 31.6054C15.6898 31.0006 15.35 30.1803 15.35 29.325V23.95C13.8545 23.9519 12.3751 23.6406 11.007 23.0362C11.035 22.3052 11.05 21.5377 11.05 20.725V20.6497C12.3142 21.3807 13.7827 21.8 15.35 21.8V16.425C15.35 15.5696 15.6898 14.7493 16.2946 14.1445C16.8994 13.5397 17.7197 13.2 18.5751 13.2H23.9501C23.9501 10.9191 23.044 8.73166 21.4312 7.11884C19.8184 5.50603 17.6309 4.59996 15.35 4.59996ZM25.885 15.35C25.4622 17.4152 24.4421 19.3107 22.9515 20.8014C21.4608 22.292 19.5653 23.3121 17.5 23.735V29.325C17.5 29.6101 17.6133 29.8835 17.8149 30.0851C18.0165 30.2867 18.2899 30.4 18.5751 30.4H31.475C31.7602 30.4 32.0336 30.2867 32.2352 30.0851C32.4368 29.8835 32.55 29.6101 32.55 29.325V16.425C32.55 16.1399 32.4368 15.8664 32.2352 15.6648C32.0336 15.4632 31.7602 15.35 31.475 15.35H25.885ZM23.6791 15.35H18.5751C18.2899 15.35 18.0165 15.4632 17.8149 15.6648C17.6133 15.8664 17.5 16.1399 17.5 16.425V21.5291C18.9874 21.1437 20.3447 20.3676 21.4312 19.2811C22.5177 18.1946 23.2938 16.8374 23.6791 15.35ZM5.8492 0.568713C6.02766 0.724807 6.1495 0.935519 6.19578 1.16805C6.24205 1.40058 6.21015 1.64189 6.10505 1.85441C6.08685 1.91731 6.07744 1.98243 6.0771 2.04791C6.0771 2.18336 6.1115 2.44136 6.43615 2.76386C6.5931 2.92081 6.7135 3.03261 6.84465 3.15516C6.95215 3.25406 7.0661 3.35726 7.21015 3.49916C7.48965 3.76576 7.7842 4.07966 8.04865 4.47311C8.5969 5.29656 8.90005 6.32641 8.90005 7.82496C8.90005 9.65891 8.22065 11.222 7.1607 12.1809L7.2983 12.34C7.9003 13.0796 8.25075 14.0385 8.47005 14.9845C8.90005 16.855 8.90005 19.1039 8.90005 20.6712V20.725C8.90005 26.717 8.0852 30.1162 7.18865 32.0598C6.73715 33.038 6.2577 33.6615 5.84275 34.0528C5.67405 34.2147 5.48803 34.3574 5.28805 34.4785C5.19648 34.5336 5.1009 34.5818 5.0021 34.6226C5.0021 34.6226 4.75915 34.7 4.60005 34.7C4.44095 34.7 4.198 34.6226 4.198 34.6226C4.09813 34.5842 4.00234 34.5359 3.91205 34.4785C3.71207 34.3574 3.52605 34.2147 3.35735 34.0528C2.9424 33.6594 2.46295 33.038 2.01145 32.0598C1.1149 30.1162 0.300049 26.717 0.300049 20.725V20.6712C0.300049 19.1017 0.300049 16.855 0.730049 14.9845C0.949349 14.0385 1.2998 13.0796 1.9018 12.34C1.9448 12.2862 1.9921 12.2325 2.0394 12.1809C0.979449 11.222 0.300049 9.65891 0.300049 7.82496C0.300049 7.12406 0.487099 6.28771 0.745099 5.51586C1.0031 4.74186 1.3643 3.94206 1.7814 3.29706C2.27805 2.45856 2.9768 1.75551 3.5186 1.28251C3.81564 1.02128 4.12563 0.775152 4.4474 0.545063L4.5119 0.502063L4.53125 0.487012L4.5377 0.482713L4.542 0.480563C4.73915 0.349148 4.97419 0.286545 5.21058 0.302486C5.44698 0.318427 5.67148 0.412019 5.8492 0.568713ZM4.60005 11.05C5.4321 11.0478 6.75005 10.1255 6.75005 7.82496C6.75005 6.63601 6.5157 6.05336 6.2577 5.66636C6.10083 5.44033 5.91989 5.23199 5.71805 5.04501L5.45145 4.79561C5.2773 4.63221 5.07305 4.44301 4.91395 4.28606C4.6788 4.05336 4.47694 3.78928 4.3141 3.50131C4.04043 3.78907 3.79958 4.10635 3.596 4.44731C3.295 4.90956 3.0026 5.54381 2.78545 6.19741C2.56185 6.86391 2.45005 7.45301 2.45005 7.82496C2.45005 10.1298 3.7723 11.05 4.60005 11.05H4.60435H4.60005ZM3.56805 13.6988C3.26275 14.0707 3.00905 14.6641 2.82415 15.4682C2.45435 17.0764 2.45005 19.0974 2.45005 20.725C2.45005 26.5579 3.2477 29.6088 3.96365 31.1589C4.20015 31.6685 4.4216 32.0082 4.60005 32.2339C4.85407 31.9021 5.06771 31.5412 5.23645 31.1589C5.9524 29.6088 6.75005 26.5579 6.75005 20.725C6.75005 19.0974 6.74575 17.0764 6.3738 15.4682C6.1889 14.6641 5.9352 14.0707 5.63205 13.6988C5.51346 13.5381 5.35752 13.4087 5.17771 13.3218C4.99791 13.2349 4.79964 13.1931 4.60005 13.2H4.59575C4.39685 13.1936 4.19938 13.2357 4.02035 13.3225C3.84132 13.4094 3.68609 13.5386 3.56805 13.6988Z" fill="white"/>
</svg>
