<svg width="26" height="21" viewBox="0 0 26 21" fill="none" xmlns="http://www.w3.org/2000/svg">
<path d="M25.4431 2.44771C24.4904 2.86978 23.4798 3.14683 22.445 3.26964C23.5229 2.62362 24.3505 1.60063 24.7402 0.381746C23.7155 0.989783 22.5945 1.41818 21.4255 1.64844C20.4733 0.633991 19.1167 0 17.6153 0C14.7325 0 12.3952 2.33719 12.3952 5.21982C12.3952 5.62899 12.4414 6.02734 12.5303 6.40948C8.19209 6.19172 4.34581 4.11364 1.77118 0.955509C1.32195 1.72646 1.06454 2.62323 1.06454 3.57973C1.06454 5.39076 1.98615 6.98841 3.38672 7.92454C2.55778 7.89858 1.74708 7.67469 1.0223 7.27157C1.022 7.29343 1.022 7.3153 1.022 7.33726C1.022 9.86637 2.82131 11.9762 5.20918 12.4557C4.44051 12.6648 3.63422 12.6953 2.85192 12.5452C3.51612 14.619 5.44394 16.1281 7.72805 16.1703C5.94157 17.5703 3.69074 18.4048 1.24522 18.4048C0.823821 18.4048 0.408382 18.3801 0 18.3319C2.31006 19.8129 5.05384 20.6771 8.00167 20.6771C17.6032 20.6771 22.8535 12.7231 22.8535 5.82518C22.8535 5.59878 22.8485 5.37367 22.8384 5.14985C23.8603 4.41109 24.7424 3.49606 25.4431 2.44771Z" fill="#1299FF"/>
</svg>
